<svg xmlns="http://www.w3.org/2000/svg" version="1.1" xmlns:xlink="http://www.w3.org/1999/xlink" xmlns:svgjs="http://svgjs.com/svgjs" width="1920" height="1080" preserveAspectRatio="none" viewBox="0 0 1920 1080"><g mask="url(&quot;#SvgjsMask1015&quot;)" fill="none"><rect width="1920" height="1080" x="0" y="0" fill="rgba(29, 119, 211, 1)"></rect><path d="M175.27 171.33L240.22 208.83L240.22 283.83L175.27 321.33L110.31 283.83L110.31 208.83zM175.27 846.33L240.22 883.83L240.22 958.83L175.27 996.33L110.31 958.83L110.31 883.83zM175.27 1071.33L240.22 1108.83L240.22 1183.83L175.27 1221.33L110.31 1183.83L110.31 1108.83zM500.04 283.83L564.99 321.33L564.99 396.33L500.04 433.83L435.08 396.33L435.08 321.33zM435.08 846.33L500.04 883.83L500.04 958.83L435.08 996.33L370.13 958.83L370.13 883.83zM564.99 171.33L629.94 208.83L629.94 283.83L564.99 321.33L500.04 283.83L500.04 208.83zM629.94 283.83L694.9 321.33L694.9 396.33L629.94 433.83L564.99 396.33L564.99 321.33zM564.99 396.33L629.94 433.83L629.94 508.83L564.99 546.33L500.04 508.83L500.04 433.83zM564.99 621.33L629.94 658.83L629.94 733.83L564.99 771.33L500.04 733.83L500.04 658.83zM629.94 733.83L694.9 771.33L694.9 846.33L629.94 883.83L564.99 846.33L564.99 771.33zM564.99 846.33L629.94 883.83L629.94 958.83L564.99 996.33L500.04 958.83L500.04 883.83zM759.85 508.83L824.81 546.33L824.81 621.33L759.85 658.83L694.9 621.33L694.9 546.33zM694.9 621.33L759.85 658.83L759.85 733.83L694.9 771.33L629.94 733.83L629.94 658.83zM824.8 171.33L889.76 208.83L889.76 283.83L824.8 321.33L759.85 283.83L759.85 208.83zM954.71 621.33L1019.67 658.83L1019.67 733.83L954.71 771.33L889.76 733.83L889.76 658.83zM1019.67 958.83L1084.62 996.33L1084.62 1071.33L1019.67 1108.83L954.71 1071.33L954.71 996.33zM1084.62 396.33L1149.57 433.83L1149.57 508.83L1084.62 546.33L1019.67 508.83L1019.67 433.83zM1084.62 1071.33L1149.57 1108.83L1149.57 1183.83L1084.62 1221.33L1019.67 1183.83L1019.67 1108.83zM1344.43 1071.33L1409.39 1108.83L1409.39 1183.83L1344.43 1221.33L1279.48 1183.83L1279.48 1108.83zM1539.3 283.83L1604.25 321.33L1604.25 396.33L1539.3 433.83L1474.34 396.33L1474.34 321.33zM1474.34 396.33L1539.3 433.83L1539.3 508.83L1474.34 546.33L1409.39 508.83L1409.39 433.83zM1604.25 846.33L1669.2 883.83L1669.2 958.83L1604.25 996.33L1539.3 958.83L1539.3 883.83zM1734.16 -53.67L1799.11 -16.17L1799.11 58.83L1734.16 96.33L1669.2 58.83L1669.2 -16.17zM1799.11 58.83L1864.06 96.33L1864.06 171.33L1799.11 208.83L1734.16 171.33L1734.16 96.33zM1864.06 171.33L1929.02 208.83L1929.02 283.83L1864.06 321.33L1799.11 283.83L1799.11 208.83z" stroke="#03305d" stroke-width="2"></path><path d="M167.77 171.33 a7.5 7.5 0 1 0 15 0 a7.5 7.5 0 1 0 -15 0zM232.72 208.83 a7.5 7.5 0 1 0 15 0 a7.5 7.5 0 1 0 -15 0zM232.72 283.83 a7.5 7.5 0 1 0 15 0 a7.5 7.5 0 1 0 -15 0zM167.77 321.33 a7.5 7.5 0 1 0 15 0 a7.5 7.5 0 1 0 -15 0zM102.81 283.83 a7.5 7.5 0 1 0 15 0 a7.5 7.5 0 1 0 -15 0zM102.81 208.83 a7.5 7.5 0 1 0 15 0 a7.5 7.5 0 1 0 -15 0zM167.77 846.33 a7.5 7.5 0 1 0 15 0 a7.5 7.5 0 1 0 -15 0zM232.72 883.83 a7.5 7.5 0 1 0 15 0 a7.5 7.5 0 1 0 -15 0zM232.72 958.83 a7.5 7.5 0 1 0 15 0 a7.5 7.5 0 1 0 -15 0zM167.77 996.33 a7.5 7.5 0 1 0 15 0 a7.5 7.5 0 1 0 -15 0zM102.81 958.83 a7.5 7.5 0 1 0 15 0 a7.5 7.5 0 1 0 -15 0zM102.81 883.83 a7.5 7.5 0 1 0 15 0 a7.5 7.5 0 1 0 -15 0zM167.77 1071.33 a7.5 7.5 0 1 0 15 0 a7.5 7.5 0 1 0 -15 0zM232.72 1108.83 a7.5 7.5 0 1 0 15 0 a7.5 7.5 0 1 0 -15 0zM232.72 1183.83 a7.5 7.5 0 1 0 15 0 a7.5 7.5 0 1 0 -15 0zM167.77 1221.33 a7.5 7.5 0 1 0 15 0 a7.5 7.5 0 1 0 -15 0zM102.81 1183.83 a7.5 7.5 0 1 0 15 0 a7.5 7.5 0 1 0 -15 0zM102.81 1108.83 a7.5 7.5 0 1 0 15 0 a7.5 7.5 0 1 0 -15 0zM492.54 283.83 a7.5 7.5 0 1 0 15 0 a7.5 7.5 0 1 0 -15 0zM557.49 321.33 a7.5 7.5 0 1 0 15 0 a7.5 7.5 0 1 0 -15 0zM557.49 396.33 a7.5 7.5 0 1 0 15 0 a7.5 7.5 0 1 0 -15 0zM492.54 433.83 a7.5 7.5 0 1 0 15 0 a7.5 7.5 0 1 0 -15 0zM427.58 396.33 a7.5 7.5 0 1 0 15 0 a7.5 7.5 0 1 0 -15 0zM427.58 321.33 a7.5 7.5 0 1 0 15 0 a7.5 7.5 0 1 0 -15 0zM427.58 846.33 a7.5 7.5 0 1 0 15 0 a7.5 7.5 0 1 0 -15 0zM492.54 883.83 a7.5 7.5 0 1 0 15 0 a7.5 7.5 0 1 0 -15 0zM492.54 958.83 a7.5 7.5 0 1 0 15 0 a7.5 7.5 0 1 0 -15 0zM427.58 996.33 a7.5 7.5 0 1 0 15 0 a7.5 7.5 0 1 0 -15 0zM362.63 958.83 a7.5 7.5 0 1 0 15 0 a7.5 7.5 0 1 0 -15 0zM362.63 883.83 a7.5 7.5 0 1 0 15 0 a7.5 7.5 0 1 0 -15 0zM557.49 171.33 a7.5 7.5 0 1 0 15 0 a7.5 7.5 0 1 0 -15 0zM622.44 208.83 a7.5 7.5 0 1 0 15 0 a7.5 7.5 0 1 0 -15 0zM622.44 283.83 a7.5 7.5 0 1 0 15 0 a7.5 7.5 0 1 0 -15 0zM492.54 208.83 a7.5 7.5 0 1 0 15 0 a7.5 7.5 0 1 0 -15 0zM687.4 321.33 a7.5 7.5 0 1 0 15 0 a7.5 7.5 0 1 0 -15 0zM687.4 396.33 a7.5 7.5 0 1 0 15 0 a7.5 7.5 0 1 0 -15 0zM622.44 433.83 a7.5 7.5 0 1 0 15 0 a7.5 7.5 0 1 0 -15 0zM622.44 508.83 a7.5 7.5 0 1 0 15 0 a7.5 7.5 0 1 0 -15 0zM557.49 546.33 a7.5 7.5 0 1 0 15 0 a7.5 7.5 0 1 0 -15 0zM492.54 508.83 a7.5 7.5 0 1 0 15 0 a7.5 7.5 0 1 0 -15 0zM557.49 621.33 a7.5 7.5 0 1 0 15 0 a7.5 7.5 0 1 0 -15 0zM622.44 658.83 a7.5 7.5 0 1 0 15 0 a7.5 7.5 0 1 0 -15 0zM622.44 733.83 a7.5 7.5 0 1 0 15 0 a7.5 7.5 0 1 0 -15 0zM557.49 771.33 a7.5 7.5 0 1 0 15 0 a7.5 7.5 0 1 0 -15 0zM492.54 733.83 a7.5 7.5 0 1 0 15 0 a7.5 7.5 0 1 0 -15 0zM492.54 658.83 a7.5 7.5 0 1 0 15 0 a7.5 7.5 0 1 0 -15 0zM687.4 771.33 a7.5 7.5 0 1 0 15 0 a7.5 7.5 0 1 0 -15 0zM687.4 846.33 a7.5 7.5 0 1 0 15 0 a7.5 7.5 0 1 0 -15 0zM622.44 883.83 a7.5 7.5 0 1 0 15 0 a7.5 7.5 0 1 0 -15 0zM557.49 846.33 a7.5 7.5 0 1 0 15 0 a7.5 7.5 0 1 0 -15 0zM622.44 958.83 a7.5 7.5 0 1 0 15 0 a7.5 7.5 0 1 0 -15 0zM557.49 996.33 a7.5 7.5 0 1 0 15 0 a7.5 7.5 0 1 0 -15 0zM752.35 508.83 a7.5 7.5 0 1 0 15 0 a7.5 7.5 0 1 0 -15 0zM817.31 546.33 a7.5 7.5 0 1 0 15 0 a7.5 7.5 0 1 0 -15 0zM817.31 621.33 a7.5 7.5 0 1 0 15 0 a7.5 7.5 0 1 0 -15 0zM752.35 658.83 a7.5 7.5 0 1 0 15 0 a7.5 7.5 0 1 0 -15 0zM687.4 621.33 a7.5 7.5 0 1 0 15 0 a7.5 7.5 0 1 0 -15 0zM687.4 546.33 a7.5 7.5 0 1 0 15 0 a7.5 7.5 0 1 0 -15 0zM752.35 733.83 a7.5 7.5 0 1 0 15 0 a7.5 7.5 0 1 0 -15 0zM817.3 171.33 a7.5 7.5 0 1 0 15 0 a7.5 7.5 0 1 0 -15 0zM882.26 208.83 a7.5 7.5 0 1 0 15 0 a7.5 7.5 0 1 0 -15 0zM882.26 283.83 a7.5 7.5 0 1 0 15 0 a7.5 7.5 0 1 0 -15 0zM817.3 321.33 a7.5 7.5 0 1 0 15 0 a7.5 7.5 0 1 0 -15 0zM752.35 283.83 a7.5 7.5 0 1 0 15 0 a7.5 7.5 0 1 0 -15 0zM752.35 208.83 a7.5 7.5 0 1 0 15 0 a7.5 7.5 0 1 0 -15 0zM947.21 621.33 a7.5 7.5 0 1 0 15 0 a7.5 7.5 0 1 0 -15 0zM1012.17 658.83 a7.5 7.5 0 1 0 15 0 a7.5 7.5 0 1 0 -15 0zM1012.17 733.83 a7.5 7.5 0 1 0 15 0 a7.5 7.5 0 1 0 -15 0zM947.21 771.33 a7.5 7.5 0 1 0 15 0 a7.5 7.5 0 1 0 -15 0zM882.26 733.83 a7.5 7.5 0 1 0 15 0 a7.5 7.5 0 1 0 -15 0zM882.26 658.83 a7.5 7.5 0 1 0 15 0 a7.5 7.5 0 1 0 -15 0zM1012.17 958.83 a7.5 7.5 0 1 0 15 0 a7.5 7.5 0 1 0 -15 0zM1077.12 996.33 a7.5 7.5 0 1 0 15 0 a7.5 7.5 0 1 0 -15 0zM1077.12 1071.33 a7.5 7.5 0 1 0 15 0 a7.5 7.5 0 1 0 -15 0zM1012.17 1108.83 a7.5 7.5 0 1 0 15 0 a7.5 7.5 0 1 0 -15 0zM947.21 1071.33 a7.5 7.5 0 1 0 15 0 a7.5 7.5 0 1 0 -15 0zM947.21 996.33 a7.5 7.5 0 1 0 15 0 a7.5 7.5 0 1 0 -15 0zM1077.12 396.33 a7.5 7.5 0 1 0 15 0 a7.5 7.5 0 1 0 -15 0zM1142.07 433.83 a7.5 7.5 0 1 0 15 0 a7.5 7.5 0 1 0 -15 0zM1142.07 508.83 a7.5 7.5 0 1 0 15 0 a7.5 7.5 0 1 0 -15 0zM1077.12 546.33 a7.5 7.5 0 1 0 15 0 a7.5 7.5 0 1 0 -15 0zM1012.17 508.83 a7.5 7.5 0 1 0 15 0 a7.5 7.5 0 1 0 -15 0zM1012.17 433.83 a7.5 7.5 0 1 0 15 0 a7.5 7.5 0 1 0 -15 0zM1142.07 1108.83 a7.5 7.5 0 1 0 15 0 a7.5 7.5 0 1 0 -15 0zM1142.07 1183.83 a7.5 7.5 0 1 0 15 0 a7.5 7.5 0 1 0 -15 0zM1077.12 1221.33 a7.5 7.5 0 1 0 15 0 a7.5 7.5 0 1 0 -15 0zM1012.17 1183.83 a7.5 7.5 0 1 0 15 0 a7.5 7.5 0 1 0 -15 0zM1336.93 1071.33 a7.5 7.5 0 1 0 15 0 a7.5 7.5 0 1 0 -15 0zM1401.89 1108.83 a7.5 7.5 0 1 0 15 0 a7.5 7.5 0 1 0 -15 0zM1401.89 1183.83 a7.5 7.5 0 1 0 15 0 a7.5 7.5 0 1 0 -15 0zM1336.93 1221.33 a7.5 7.5 0 1 0 15 0 a7.5 7.5 0 1 0 -15 0zM1271.98 1183.83 a7.5 7.5 0 1 0 15 0 a7.5 7.5 0 1 0 -15 0zM1271.98 1108.83 a7.5 7.5 0 1 0 15 0 a7.5 7.5 0 1 0 -15 0zM1531.8 283.83 a7.5 7.5 0 1 0 15 0 a7.5 7.5 0 1 0 -15 0zM1596.75 321.33 a7.5 7.5 0 1 0 15 0 a7.5 7.5 0 1 0 -15 0zM1596.75 396.33 a7.5 7.5 0 1 0 15 0 a7.5 7.5 0 1 0 -15 0zM1531.8 433.83 a7.5 7.5 0 1 0 15 0 a7.5 7.5 0 1 0 -15 0zM1466.84 396.33 a7.5 7.5 0 1 0 15 0 a7.5 7.5 0 1 0 -15 0zM1466.84 321.33 a7.5 7.5 0 1 0 15 0 a7.5 7.5 0 1 0 -15 0zM1531.8 508.83 a7.5 7.5 0 1 0 15 0 a7.5 7.5 0 1 0 -15 0zM1466.84 546.33 a7.5 7.5 0 1 0 15 0 a7.5 7.5 0 1 0 -15 0zM1401.89 508.83 a7.5 7.5 0 1 0 15 0 a7.5 7.5 0 1 0 -15 0zM1401.89 433.83 a7.5 7.5 0 1 0 15 0 a7.5 7.5 0 1 0 -15 0zM1596.75 846.33 a7.5 7.5 0 1 0 15 0 a7.5 7.5 0 1 0 -15 0zM1661.7 883.83 a7.5 7.5 0 1 0 15 0 a7.5 7.5 0 1 0 -15 0zM1661.7 958.83 a7.5 7.5 0 1 0 15 0 a7.5 7.5 0 1 0 -15 0zM1596.75 996.33 a7.5 7.5 0 1 0 15 0 a7.5 7.5 0 1 0 -15 0zM1531.8 958.83 a7.5 7.5 0 1 0 15 0 a7.5 7.5 0 1 0 -15 0zM1531.8 883.83 a7.5 7.5 0 1 0 15 0 a7.5 7.5 0 1 0 -15 0zM1726.66 -53.67 a7.5 7.5 0 1 0 15 0 a7.5 7.5 0 1 0 -15 0zM1791.61 -16.17 a7.5 7.5 0 1 0 15 0 a7.5 7.5 0 1 0 -15 0zM1791.61 58.83 a7.5 7.5 0 1 0 15 0 a7.5 7.5 0 1 0 -15 0zM1726.66 96.33 a7.5 7.5 0 1 0 15 0 a7.5 7.5 0 1 0 -15 0zM1661.7 58.83 a7.5 7.5 0 1 0 15 0 a7.5 7.5 0 1 0 -15 0zM1661.7 -16.17 a7.5 7.5 0 1 0 15 0 a7.5 7.5 0 1 0 -15 0zM1856.56 96.33 a7.5 7.5 0 1 0 15 0 a7.5 7.5 0 1 0 -15 0zM1856.56 171.33 a7.5 7.5 0 1 0 15 0 a7.5 7.5 0 1 0 -15 0zM1791.61 208.83 a7.5 7.5 0 1 0 15 0 a7.5 7.5 0 1 0 -15 0zM1726.66 171.33 a7.5 7.5 0 1 0 15 0 a7.5 7.5 0 1 0 -15 0zM1921.52 208.83 a7.5 7.5 0 1 0 15 0 a7.5 7.5 0 1 0 -15 0zM1921.52 283.83 a7.5 7.5 0 1 0 15 0 a7.5 7.5 0 1 0 -15 0zM1856.56 321.33 a7.5 7.5 0 1 0 15 0 a7.5 7.5 0 1 0 -15 0zM1791.61 283.83 a7.5 7.5 0 1 0 15 0 a7.5 7.5 0 1 0 -15 0z" fill="#03305d"></path><path d="M85.83 31.52L129.13 56.52L129.13 106.52L85.83 131.52L42.53 106.52L42.53 56.52zM42.53 106.52L85.83 131.52L85.83 181.52L42.53 206.52L-0.77 181.52L-0.77 131.52zM85.83 331.52L129.13 356.52L129.13 406.52L85.83 431.52L42.53 406.52L42.53 356.52zM42.53 406.52L85.83 431.52L85.83 481.52L42.53 506.52L-0.77 481.52L-0.77 431.52zM42.53 706.52L85.83 731.52L85.83 781.52L42.53 806.52L-0.77 781.52L-0.77 731.52zM42.53 856.52L85.83 881.52L85.83 931.52L42.53 956.52L-0.77 931.52L-0.77 881.52zM42.53 1006.52L85.83 1031.52L85.83 1081.52L42.53 1106.52L-0.77 1081.52L-0.77 1031.52zM129.13 256.52L172.44 281.52L172.44 331.52L129.13 356.52L85.83 331.52L85.83 281.52zM172.44 631.52L215.74 656.52L215.74 706.52L172.44 731.52L129.13 706.52L129.13 656.52zM172.44 781.52L215.74 806.52L215.74 856.52L172.44 881.52L129.13 856.52L129.13 806.52zM129.13 856.52L172.44 881.52L172.44 931.52L129.13 956.52L85.83 931.52L85.83 881.52zM215.74 -43.48L259.04 -18.48L259.04 31.52L215.74 56.52L172.44 31.52L172.44 -18.48zM259.04 181.52L302.35 206.52L302.35 256.52L259.04 281.52L215.74 256.52L215.74 206.52zM215.74 706.52L259.04 731.52L259.04 781.52L215.74 806.52L172.44 781.52L172.44 731.52zM259.04 781.52L302.35 806.52L302.35 856.52L259.04 881.52L215.74 856.52L215.74 806.52zM259.04 931.52L302.35 956.52L302.35 1006.52L259.04 1031.52L215.74 1006.52L215.74 956.52zM215.74 1006.52L259.04 1031.52L259.04 1081.52L215.74 1106.52L172.44 1081.52L172.44 1031.52zM302.35 -43.48L345.65 -18.48L345.65 31.52L302.35 56.52L259.04 31.52L259.04 -18.48zM345.65 31.52L388.95 56.52L388.95 106.52L345.65 131.52L302.35 106.52L302.35 56.52zM302.35 106.52L345.65 131.52L345.65 181.52L302.35 206.52L259.04 181.52L259.04 131.52zM345.65 181.52L388.95 206.52L388.95 256.52L345.65 281.52L302.35 256.52L302.35 206.52zM302.35 406.52L345.65 431.52L345.65 481.52L302.35 506.52L259.04 481.52L259.04 431.52zM345.65 481.52L388.95 506.52L388.95 556.52L345.65 581.52L302.35 556.52L302.35 506.52zM302.35 556.52L345.65 581.52L345.65 631.52L302.35 656.52L259.04 631.52L259.04 581.52zM345.65 781.52L388.95 806.52L388.95 856.52L345.65 881.52L302.35 856.52L302.35 806.52zM302.35 856.52L345.65 881.52L345.65 931.52L302.35 956.52L259.04 931.52L259.04 881.52zM345.65 931.52L388.95 956.52L388.95 1006.52L345.65 1031.52L302.35 1006.52L302.35 956.52zM302.35 1006.52L345.65 1031.52L345.65 1081.52L302.35 1106.52L259.04 1081.52L259.04 1031.52zM432.25 31.52L475.56 56.52L475.56 106.52L432.25 131.52L388.95 106.52L388.95 56.52zM432.25 331.52L475.56 356.52L475.56 406.52L432.25 431.52L388.95 406.52L388.95 356.52zM388.95 406.52L432.25 431.52L432.25 481.52L388.95 506.52L345.65 481.52L345.65 431.52zM432.25 481.52L475.56 506.52L475.56 556.52L432.25 581.52L388.95 556.52L388.95 506.52zM388.95 556.52L432.25 581.52L432.25 631.52L388.95 656.52L345.65 631.52L345.65 581.52zM388.95 706.52L432.25 731.52L432.25 781.52L388.95 806.52L345.65 781.52L345.65 731.52zM432.25 931.52L475.56 956.52L475.56 1006.52L432.25 1031.52L388.95 1006.52L388.95 956.52zM388.95 1006.52L432.25 1031.52L432.25 1081.52L388.95 1106.52L345.65 1081.52L345.65 1031.52zM475.56 -43.48L518.86 -18.48L518.86 31.52L475.56 56.52L432.25 31.52L432.25 -18.48zM475.56 106.52L518.86 131.52L518.86 181.52L475.56 206.52L432.25 181.52L432.25 131.52zM518.86 181.52L562.16 206.52L562.16 256.52L518.86 281.52L475.56 256.52L475.56 206.52zM518.86 781.52L562.16 806.52L562.16 856.52L518.86 881.52L475.56 856.52L475.56 806.52zM475.56 856.52L518.86 881.52L518.86 931.52L475.56 956.52L432.25 931.52L432.25 881.52zM518.86 931.52L562.16 956.52L562.16 1006.52L518.86 1031.52L475.56 1006.52L475.56 956.52zM475.56 1006.52L518.86 1031.52L518.86 1081.52L475.56 1106.52L432.25 1081.52L432.25 1031.52zM605.46 181.52L648.76 206.52L648.76 256.52L605.46 281.52L562.16 256.52L562.16 206.52zM562.16 256.52L605.46 281.52L605.46 331.52L562.16 356.52L518.86 331.52L518.86 281.52zM605.46 331.52L648.76 356.52L648.76 406.52L605.46 431.52L562.16 406.52L562.16 356.52zM562.16 406.52L605.46 431.52L605.46 481.52L562.16 506.52L518.86 481.52L518.86 431.52zM562.16 556.52L605.46 581.52L605.46 631.52L562.16 656.52L518.86 631.52L518.86 581.52zM562.16 706.52L605.46 731.52L605.46 781.52L562.16 806.52L518.86 781.52L518.86 731.52zM605.46 781.52L648.76 806.52L648.76 856.52L605.46 881.52L562.16 856.52L562.16 806.52zM562.16 856.52L605.46 881.52L605.46 931.52L562.16 956.52L518.86 931.52L518.86 881.52zM562.16 1006.52L605.46 1031.52L605.46 1081.52L562.16 1106.52L518.86 1081.52L518.86 1031.52zM692.07 31.52L735.37 56.52L735.37 106.52L692.07 131.52L648.76 106.52L648.76 56.52zM692.07 181.52L735.37 206.52L735.37 256.52L692.07 281.52L648.76 256.52L648.76 206.52zM648.76 406.52L692.07 431.52L692.07 481.52L648.76 506.52L605.46 481.52L605.46 431.52zM648.76 556.52L692.07 581.52L692.07 631.52L648.76 656.52L605.46 631.52L605.46 581.52zM648.76 706.52L692.07 731.52L692.07 781.52L648.76 806.52L605.46 781.52L605.46 731.52zM648.76 856.52L692.07 881.52L692.07 931.52L648.76 956.52L605.46 931.52L605.46 881.52zM648.76 1006.52L692.07 1031.52L692.07 1081.52L648.76 1106.52L605.46 1081.52L605.46 1031.52zM735.37 -43.48L778.67 -18.48L778.67 31.52L735.37 56.52L692.07 31.52L692.07 -18.48zM778.67 181.52L821.98 206.52L821.98 256.52L778.67 281.52L735.37 256.52L735.37 206.52zM778.67 331.52L821.98 356.52L821.98 406.52L778.67 431.52L735.37 406.52L735.37 356.52zM735.37 406.52L778.67 431.52L778.67 481.52L735.37 506.52L692.07 481.52L692.07 431.52zM735.37 556.52L778.67 581.52L778.67 631.52L735.37 656.52L692.07 631.52L692.07 581.52zM735.37 706.52L778.67 731.52L778.67 781.52L735.37 806.52L692.07 781.52L692.07 731.52zM778.67 781.52L821.98 806.52L821.98 856.52L778.67 881.52L735.37 856.52L735.37 806.52zM735.37 856.52L778.67 881.52L778.67 931.52L735.37 956.52L692.07 931.52L692.07 881.52zM778.67 931.52L821.98 956.52L821.98 1006.52L778.67 1031.52L735.37 1006.52L735.37 956.52zM735.37 1006.52L778.67 1031.52L778.67 1081.52L735.37 1106.52L692.07 1081.52L692.07 1031.52zM865.28 31.52L908.58 56.52L908.58 106.52L865.28 131.52L821.98 106.52L821.98 56.52zM821.98 106.52L865.28 131.52L865.28 181.52L821.98 206.52L778.67 181.52L778.67 131.52zM865.28 181.52L908.58 206.52L908.58 256.52L865.28 281.52L821.98 256.52L821.98 206.52zM821.98 406.52L865.28 431.52L865.28 481.52L821.98 506.52L778.67 481.52L778.67 431.52zM865.28 631.52L908.58 656.52L908.58 706.52L865.28 731.52L821.98 706.52L821.98 656.52zM821.98 706.52L865.28 731.52L865.28 781.52L821.98 806.52L778.67 781.52L778.67 731.52zM908.58 106.52L951.88 131.52L951.88 181.52L908.58 206.52L865.28 181.52L865.28 131.52zM951.88 181.52L995.19 206.52L995.19 256.52L951.88 281.52L908.58 256.52L908.58 206.52zM908.58 256.52L951.88 281.52L951.88 331.52L908.58 356.52L865.28 331.52L865.28 281.52zM951.88 781.52L995.19 806.52L995.19 856.52L951.88 881.52L908.58 856.52L908.58 806.52zM951.88 931.52L995.19 956.52L995.19 1006.52L951.88 1031.52L908.58 1006.52L908.58 956.52zM1038.49 31.52L1081.79 56.52L1081.79 106.52L1038.49 131.52L995.19 106.52L995.19 56.52zM995.19 106.52L1038.49 131.52L1038.49 181.52L995.19 206.52L951.88 181.52L951.88 131.52zM1038.49 181.52L1081.79 206.52L1081.79 256.52L1038.49 281.52L995.19 256.52L995.19 206.52zM995.19 406.52L1038.49 431.52L1038.49 481.52L995.19 506.52L951.88 481.52L951.88 431.52zM995.19 556.52L1038.49 581.52L1038.49 631.52L995.19 656.52L951.88 631.52L951.88 581.52zM995.19 706.52L1038.49 731.52L1038.49 781.52L995.19 806.52L951.88 781.52L951.88 731.52zM995.19 1006.52L1038.49 1031.52L1038.49 1081.52L995.19 1106.52L951.88 1081.52L951.88 1031.52zM1081.79 -43.48L1125.09 -18.48L1125.09 31.52L1081.79 56.52L1038.49 31.52L1038.49 -18.48zM1125.09 181.52L1168.39 206.52L1168.39 256.52L1125.09 281.52L1081.79 256.52L1081.79 206.52zM1081.79 556.52L1125.09 581.52L1125.09 631.52L1081.79 656.52L1038.49 631.52L1038.49 581.52zM1125.09 781.52L1168.39 806.52L1168.39 856.52L1125.09 881.52L1081.79 856.52L1081.79 806.52zM1125.09 931.52L1168.39 956.52L1168.39 1006.52L1125.09 1031.52L1081.79 1006.52L1081.79 956.52zM1168.39 -43.48L1211.7 -18.48L1211.7 31.52L1168.39 56.52L1125.09 31.52L1125.09 -18.48zM1211.7 31.52L1255 56.52L1255 106.52L1211.7 131.52L1168.39 106.52L1168.39 56.52zM1168.39 106.52L1211.7 131.52L1211.7 181.52L1168.39 206.52L1125.09 181.52L1125.09 131.52zM1211.7 481.52L1255 506.52L1255 556.52L1211.7 581.52L1168.39 556.52L1168.39 506.52zM1168.39 706.52L1211.7 731.52L1211.7 781.52L1168.39 806.52L1125.09 781.52L1125.09 731.52zM1168.39 856.52L1211.7 881.52L1211.7 931.52L1168.39 956.52L1125.09 931.52L1125.09 881.52zM1211.7 931.52L1255 956.52L1255 1006.52L1211.7 1031.52L1168.39 1006.52L1168.39 956.52zM1168.39 1006.52L1211.7 1031.52L1211.7 1081.52L1168.39 1106.52L1125.09 1081.52L1125.09 1031.52zM1298.3 31.52L1341.61 56.52L1341.61 106.52L1298.3 131.52L1255 106.52L1255 56.52zM1255 256.52L1298.3 281.52L1298.3 331.52L1255 356.52L1211.7 331.52L1211.7 281.52zM1298.3 331.52L1341.61 356.52L1341.61 406.52L1298.3 431.52L1255 406.52L1255 356.52zM1298.3 481.52L1341.61 506.52L1341.61 556.52L1298.3 581.52L1255 556.52L1255 506.52zM1255 556.52L1298.3 581.52L1298.3 631.52L1255 656.52L1211.7 631.52L1211.7 581.52zM1298.3 631.52L1341.61 656.52L1341.61 706.52L1298.3 731.52L1255 706.52L1255 656.52zM1255 706.52L1298.3 731.52L1298.3 781.52L1255 806.52L1211.7 781.52L1211.7 731.52zM1255 1006.52L1298.3 1031.52L1298.3 1081.52L1255 1106.52L1211.7 1081.52L1211.7 1031.52zM1341.61 -43.48L1384.91 -18.48L1384.91 31.52L1341.61 56.52L1298.3 31.52L1298.3 -18.48zM1341.61 106.52L1384.91 131.52L1384.91 181.52L1341.61 206.52L1298.3 181.52L1298.3 131.52zM1341.61 256.52L1384.91 281.52L1384.91 331.52L1341.61 356.52L1298.3 331.52L1298.3 281.52zM1384.91 331.52L1428.21 356.52L1428.21 406.52L1384.91 431.52L1341.61 406.52L1341.61 356.52zM1341.61 406.52L1384.91 431.52L1384.91 481.52L1341.61 506.52L1298.3 481.52L1298.3 431.52zM1384.91 781.52L1428.21 806.52L1428.21 856.52L1384.91 881.52L1341.61 856.52L1341.61 806.52zM1384.91 931.52L1428.21 956.52L1428.21 1006.52L1384.91 1031.52L1341.61 1006.52L1341.61 956.52zM1428.21 -43.48L1471.51 -18.48L1471.51 31.52L1428.21 56.52L1384.91 31.52L1384.91 -18.48zM1428.21 106.52L1471.51 131.52L1471.51 181.52L1428.21 206.52L1384.91 181.52L1384.91 131.52zM1428.21 406.52L1471.51 431.52L1471.51 481.52L1428.21 506.52L1384.91 481.52L1384.91 431.52zM1471.51 781.52L1514.82 806.52L1514.82 856.52L1471.51 881.52L1428.21 856.52L1428.21 806.52zM1471.51 931.52L1514.82 956.52L1514.82 1006.52L1471.51 1031.52L1428.21 1006.52L1428.21 956.52zM1428.21 1006.52L1471.51 1031.52L1471.51 1081.52L1428.21 1106.52L1384.91 1081.52L1384.91 1031.52zM1514.82 -43.48L1558.12 -18.48L1558.12 31.52L1514.82 56.52L1471.51 31.52L1471.51 -18.48zM1558.12 181.52L1601.42 206.52L1601.42 256.52L1558.12 281.52L1514.82 256.52L1514.82 206.52zM1558.12 781.52L1601.42 806.52L1601.42 856.52L1558.12 881.52L1514.82 856.52L1514.82 806.52zM1558.12 931.52L1601.42 956.52L1601.42 1006.52L1558.12 1031.52L1514.82 1006.52L1514.82 956.52zM1514.82 1006.52L1558.12 1031.52L1558.12 1081.52L1514.82 1106.52L1471.51 1081.52L1471.51 1031.52zM1601.42 -43.48L1644.72 -18.48L1644.72 31.52L1601.42 56.52L1558.12 31.52L1558.12 -18.48zM1644.72 31.52L1688.03 56.52L1688.03 106.52L1644.72 131.52L1601.42 106.52L1601.42 56.52zM1644.72 181.52L1688.03 206.52L1688.03 256.52L1644.72 281.52L1601.42 256.52L1601.42 206.52zM1601.42 256.52L1644.72 281.52L1644.72 331.52L1601.42 356.52L1558.12 331.52L1558.12 281.52zM1644.72 631.52L1688.03 656.52L1688.03 706.52L1644.72 731.52L1601.42 706.52L1601.42 656.52zM1601.42 706.52L1644.72 731.52L1644.72 781.52L1601.42 806.52L1558.12 781.52L1558.12 731.52zM1644.72 781.52L1688.03 806.52L1688.03 856.52L1644.72 881.52L1601.42 856.52L1601.42 806.52zM1601.42 1006.52L1644.72 1031.52L1644.72 1081.52L1601.42 1106.52L1558.12 1081.52L1558.12 1031.52zM1688.03 -43.48L1731.33 -18.48L1731.33 31.52L1688.03 56.52L1644.72 31.52L1644.72 -18.48zM1731.33 181.52L1774.63 206.52L1774.63 256.52L1731.33 281.52L1688.03 256.52L1688.03 206.52zM1731.33 331.52L1774.63 356.52L1774.63 406.52L1731.33 431.52L1688.03 406.52L1688.03 356.52zM1731.33 481.52L1774.63 506.52L1774.63 556.52L1731.33 581.52L1688.03 556.52L1688.03 506.52zM1731.33 631.52L1774.63 656.52L1774.63 706.52L1731.33 731.52L1688.03 706.52L1688.03 656.52zM1688.03 706.52L1731.33 731.52L1731.33 781.52L1688.03 806.52L1644.72 781.52L1644.72 731.52zM1817.93 331.52L1861.24 356.52L1861.24 406.52L1817.93 431.52L1774.63 406.52L1774.63 356.52zM1774.63 556.52L1817.93 581.52L1817.93 631.52L1774.63 656.52L1731.33 631.52L1731.33 581.52zM1861.24 -43.48L1904.54 -18.48L1904.54 31.52L1861.24 56.52L1817.93 31.52L1817.93 -18.48zM1861.24 106.52L1904.54 131.52L1904.54 181.52L1861.24 206.52L1817.93 181.52L1817.93 131.52zM1904.54 181.52L1947.84 206.52L1947.84 256.52L1904.54 281.52L1861.24 256.52L1861.24 206.52zM1861.24 256.52L1904.54 281.52L1904.54 331.52L1861.24 356.52L1817.93 331.52L1817.93 281.52zM1904.54 481.52L1947.84 506.52L1947.84 556.52L1904.54 581.52L1861.24 556.52L1861.24 506.52zM1861.24 556.52L1904.54 581.52L1904.54 631.52L1861.24 656.52L1817.93 631.52L1817.93 581.52zM1861.24 1006.52L1904.54 1031.52L1904.54 1081.52L1861.24 1106.52L1817.93 1081.52L1817.93 1031.52zM1947.84 256.52L1991.14 281.52L1991.14 331.52L1947.84 356.52L1904.54 331.52L1904.54 281.52zM1991.14 781.52L2034.45 806.52L2034.45 856.52L1991.14 881.52L1947.84 856.52L1947.84 806.52zM1991.14 931.52L2034.45 956.52L2034.45 1006.52L1991.14 1031.52L1947.84 1006.52L1947.84 956.52z" stroke="rgba(6, 112, 156, 0.93)" stroke-width="2"></path></g><defs><mask id="SvgjsMask1015"><rect width="1920" height="1080" fill="#ffffff"></rect></mask></defs></svg>